<?xml version="1.0" encoding="utf-8"?>
<!-- Generator: Adobe Illustrator 13.0.0, SVG Export Plug-In . SVG Version: 6.00 Build 14948)  -->
<!DOCTYPE svg PUBLIC "-//W3C//DTD SVG 1.1//EN" "http://www.w3.org/Graphics/SVG/1.1/DTD/svg11.dtd">
<svg version="1.1" id="Layer_1" xmlns="http://www.w3.org/2000/svg" xmlns:xlink="http://www.w3.org/1999/xlink" x="0px" y="0px"
	 width="800px" height="600px" viewBox="0 0 800 600" enable-background="new 0 0 800 600" xml:space="preserve">
<rect x="174.5" y="74.5" fill="#FFFFFF" stroke="#000000" stroke-width="1.4173" width="450" height="450"/>
<rect x="199.5" y="99.5" fill="none" stroke="#000000" stroke-width="2.8346" width="400" height="400"/>
<path id="path3866-4" inkscape:connector-curvature="0" sodipodi:nodetypes="ssssssssss" fill="#FFFFFF" fill-opacity="0.6275" d="
	M-392.632,304.443c-60.054,0-109.163,49.098-109.163,109.152c0,60.053,49.108,109.162,109.163,109.162
	c60.053,0,109.15-49.109,109.15-109.162C-283.482,353.541-332.58,304.443-392.632,304.443z M-392.632,364.586
	c39.018,0,70.229,9.99,70.229,49.01s-31.211,48.355-70.229,48.355c-39.02,0-70.24-9.336-70.24-48.355
	S-431.652,364.586-392.632,364.586L-392.632,364.586z"/>
<g>
	<rect x="249.5" y="99.5" fill="#CC9966" width="50" height="50"/>
	<rect x="199.5" y="149.5" fill="#CC9966" width="50" height="50"/>
	<rect x="349.5" y="99.5" fill="#CC9966" width="50" height="50"/>
	<rect x="449.5" y="99.5" fill="#CC9966" width="50" height="50"/>
	<rect x="549.5" y="99.5" fill="#CC9966" width="50" height="50"/>
	<rect x="299.5" y="149.5" fill="#CC9966" width="50" height="50"/>
	<rect x="399.5" y="149.5" fill="#CC9966" width="50" height="50"/>
	<rect x="499.5" y="149.5" fill="#CC9966" width="50" height="50"/>
	<rect x="249.5" y="199.5" fill="#CC9966" width="50" height="50"/>
	<rect x="199.5" y="249.5" fill="#CC9966" width="50" height="50"/>
	<rect x="349.5" y="199.5" fill="#CC9966" width="50" height="50"/>
	<rect x="449.5" y="199.5" fill="#CC9966" width="50" height="50"/>
	<rect x="549.5" y="199.5" fill="#CC9966" width="50" height="50"/>
	<rect x="299.5" y="249.5" fill="#CC9966" width="50" height="50"/>
	<rect x="399.5" y="249.5" fill="#CC9966" width="50" height="50"/>
	<rect x="499.5" y="249.5" fill="#CC9966" width="50" height="50"/>
	<rect x="249.5" y="299.5" fill="#CC9966" width="50" height="50"/>
	<rect x="199.5" y="349.5" fill="#CC9966" width="50" height="50"/>
	<rect x="349.5" y="299.5" fill="#CC9966" width="50" height="50"/>
	<rect x="449.5" y="299.5" fill="#CC9966" width="50" height="50"/>
	<rect x="549.5" y="299.5" fill="#CC9966" width="50" height="50"/>
	<rect x="299.5" y="349.5" fill="#CC9966" width="50" height="50"/>
	<rect x="399.5" y="349.5" fill="#CC9966" width="50" height="50"/>
	<rect x="499.5" y="349.5" fill="#CC9966" width="50" height="50"/>
	<rect x="249.5" y="399.5" fill="#CC9966" width="50" height="50"/>
	<rect x="199.5" y="449.5" fill="#CC9966" width="50" height="50"/>
	<rect x="349.5" y="399.5" fill="#CC9966" width="50" height="50"/>
	<rect x="449.5" y="399.5" fill="#CC9966" width="50" height="50"/>
	<rect x="549.5" y="399.5" fill="#CC9966" width="50" height="50"/>
	<rect x="299.5" y="449.5" fill="#CC9966" width="50" height="50"/>
	<rect x="399.5" y="449.5" fill="#CC9966" width="50" height="50"/>
	<rect x="499.5" y="449.5" fill="#CC9966" width="50" height="50"/>
</g>
<g>
	<rect x="199.5" y="99.5" fill="#FFFFCC" width="50" height="50"/>
	<rect x="299.5" y="99.5" fill="#FFFFCC" width="50" height="50"/>
	<rect x="399.5" y="99.5" fill="#FFFFCC" width="50" height="50"/>
	<rect x="499.5" y="99.5" fill="#FFFFCC" width="50" height="50"/>
	<rect x="249.5" y="149.5" fill="#FFFFCC" width="50" height="50"/>
	<rect x="349.5" y="149.5" fill="#FFFFCC" width="50" height="50"/>
	<rect x="449.5" y="149.5" fill="#FFFFCC" width="50" height="50"/>
	<rect x="549.5" y="149.5" fill="#FFFFCC" width="50" height="50"/>
	<rect x="199.5" y="199.5" fill="#FFFFCC" width="50" height="50"/>
	<rect x="299.5" y="199.5" fill="#FFFFCC" width="50" height="50"/>
	<rect x="399.5" y="199.5" fill="#FFFFCC" width="50" height="50"/>
	<rect x="499.5" y="199.5" fill="#FFFFCC" width="50" height="50"/>
	<rect x="249.5" y="249.5" fill="#FFFFCC" width="50" height="50"/>
	<rect x="349.5" y="249.5" fill="#FFFFCC" width="50" height="50"/>
	<rect x="449.5" y="249.5" fill="#FFFFCC" width="50" height="50"/>
	<rect x="549.5" y="249.5" fill="#FFFFCC" width="50" height="50"/>
	<rect x="199.5" y="299.5" fill="#FFFFCC" width="50" height="50"/>
	<rect x="299.5" y="299.5" fill="#FFFFCC" width="50" height="50"/>
	<rect x="399.5" y="299.5" fill="#FFFFCC" width="50" height="50"/>
	<rect x="499.5" y="299.5" fill="#FFFFCC" width="50" height="50"/>
	<rect x="249.5" y="349.5" fill="#FFFFCC" width="50" height="50"/>
	<rect x="349.5" y="349.5" fill="#FFFFCC" width="50" height="50"/>
	<rect x="449.5" y="349.5" fill="#FFFFCC" width="50" height="50"/>
	<rect x="549.5" y="349.5" fill="#FFFFCC" width="50" height="50"/>
	<rect x="199.5" y="399.5" fill="#FFFFCC" width="50" height="50"/>
	<rect x="299.5" y="399.5" fill="#FFFFCC" width="50" height="50"/>
	<rect x="399.5" y="399.5" fill="#FFFFCC" width="50" height="50"/>
	<rect x="499.5" y="399.5" fill="#FFFFCC" width="50" height="50"/>
	<rect x="249.5" y="449.5" fill="#FFFFCC" width="50" height="50"/>
	<rect x="349.5" y="449.5" fill="#FFFFCC" width="50" height="50"/>
	<rect x="449.5" y="449.5" fill="#FFFFCC" width="50" height="50"/>
	<rect x="549.5" y="449.5" fill="#FFFFCC" width="50" height="50"/>
</g>
<g>
	<g>
		<path d="M220.381,515.811l3.849-10.021h1.429l4.102,10.021h-1.511l-1.169-3.035h-4.19l-1.101,3.035H220.381z M223.273,511.695
			h3.397l-1.046-2.775c-0.319-0.843-0.556-1.536-0.711-2.078c-0.127,0.643-0.308,1.28-0.54,1.914L223.273,511.695z"/>
	</g>
	<g>
		<path d="M271.041,515.811v-10.021h3.76c0.766,0,1.38,0.102,1.842,0.304c0.462,0.203,0.825,0.516,1.087,0.938
			c0.262,0.421,0.393,0.862,0.393,1.322c0,0.429-0.116,0.832-0.349,1.21s-0.583,0.684-1.053,0.916
			c0.606,0.178,1.072,0.48,1.398,0.909s0.489,0.935,0.489,1.518c0,0.47-0.099,0.906-0.297,1.309
			c-0.198,0.404-0.443,0.715-0.735,0.934s-0.657,0.384-1.097,0.496c-0.44,0.111-0.979,0.167-1.617,0.167H271.041z M272.367,510
			h2.167c0.588,0,1.009-0.039,1.265-0.116c0.337-0.101,0.591-0.267,0.762-0.499s0.256-0.524,0.256-0.875
			c0-0.333-0.08-0.626-0.239-0.878c-0.16-0.254-0.387-0.427-0.684-0.52c-0.296-0.094-0.804-0.141-1.524-0.141h-2.003V510z
			 M272.367,514.628h2.495c0.428,0,0.729-0.016,0.902-0.048c0.305-0.055,0.561-0.146,0.766-0.273s0.374-0.313,0.506-0.558
			c0.132-0.243,0.198-0.524,0.198-0.844c0-0.374-0.096-0.698-0.287-0.975c-0.191-0.275-0.457-0.469-0.796-0.58
			c-0.339-0.112-0.828-0.168-1.466-0.168h-2.317V514.628z"/>
	</g>
	<g>
		<path d="M327.86,512.126l1.326,0.335c-0.278,1.089-0.778,1.92-1.5,2.492c-0.722,0.571-1.605,0.857-2.649,0.857
			c-1.08,0-1.958-0.22-2.635-0.66c-0.677-0.439-1.192-1.076-1.545-1.91s-0.53-1.729-0.53-2.687c0-1.044,0.199-1.954,0.598-2.731
			c0.399-0.776,0.966-1.367,1.702-1.77c0.736-0.404,1.546-0.605,2.43-0.605c1.002,0,1.846,0.255,2.529,0.766s1.16,1.229,1.429,2.153
			l-1.306,0.308c-0.232-0.729-0.57-1.26-1.012-1.593s-0.998-0.499-1.668-0.499c-0.77,0-1.414,0.185-1.931,0.554
			s-0.881,0.864-1.09,1.487c-0.209,0.621-0.314,1.263-0.314,1.924c0,0.853,0.124,1.596,0.373,2.232
			c0.249,0.635,0.635,1.11,1.159,1.425s1.091,0.472,1.702,0.472c0.743,0,1.372-0.214,1.887-0.643S327.678,512.969,327.86,512.126z"
			/>
	</g>
	<g>
		<path d="M370.709,515.811v-10.021h3.452c0.779,0,1.374,0.048,1.784,0.144c0.574,0.132,1.064,0.371,1.47,0.718
			c0.529,0.446,0.924,1.018,1.186,1.712c0.262,0.695,0.393,1.489,0.393,2.383c0,0.761-0.089,1.436-0.267,2.023
			s-0.406,1.074-0.684,1.459c-0.278,0.386-0.582,0.688-0.913,0.91c-0.331,0.221-0.729,0.388-1.196,0.502s-1.004,0.171-1.61,0.171
			H370.709z M372.036,514.628h2.14c0.661,0,1.179-0.062,1.555-0.185s0.676-0.296,0.899-0.52c0.314-0.314,0.56-0.737,0.735-1.269
			c0.175-0.53,0.263-1.174,0.263-1.931c0-1.048-0.172-1.854-0.516-2.417c-0.344-0.563-0.762-0.939-1.254-1.131
			c-0.355-0.137-0.927-0.205-1.716-0.205h-2.105V514.628z"/>
	</g>
	<g>
		<path d="M421.123,515.811v-10.021h7.246v1.183h-5.92v3.069h5.545v1.176h-5.545v3.411h6.152v1.183H421.123z"/>
	</g>
	<g>
		<path d="M471.559,515.811v-10.021h6.76v1.183h-5.434v3.104h4.703v1.183h-4.703v4.553H471.559z"/>
	</g>
	<g>
		<path d="M525.01,511.709v-1.176l4.244-0.007v3.719c-0.65,0.52-1.322,0.91-2.016,1.173c-0.693,0.262-1.404,0.393-2.133,0.393
			c-0.984,0-1.879-0.211-2.684-0.633c-0.805-0.421-1.412-1.03-1.822-1.828s-0.615-1.688-0.615-2.673
			c0-0.976,0.205-1.886,0.613-2.731c0.406-0.845,0.994-1.473,1.76-1.883s1.646-0.615,2.645-0.615c0.725,0,1.381,0.117,1.967,0.352
			c0.584,0.235,1.045,0.563,1.377,0.981s0.586,0.966,0.758,1.641l-1.195,0.328c-0.15-0.511-0.338-0.911-0.561-1.203
			s-0.543-0.525-0.957-0.7c-0.414-0.176-0.875-0.264-1.381-0.264c-0.605,0-1.131,0.092-1.572,0.277
			c-0.441,0.184-0.799,0.427-1.07,0.728s-0.482,0.631-0.633,0.991c-0.254,0.62-0.383,1.292-0.383,2.017
			c0,0.894,0.154,1.641,0.463,2.242c0.307,0.602,0.754,1.048,1.342,1.34s1.213,0.438,1.873,0.438c0.574,0,1.135-0.11,1.682-0.331
			c0.547-0.222,0.963-0.457,1.244-0.708v-1.866H525.01z"/>
	</g>
	<g>
		<path d="M570.75,515.811v-10.021h1.326v4.115h5.209v-4.115h1.326v10.021h-1.326v-4.724h-5.209v4.724H570.75z"/>
	</g>
</g>
<g>
	<g>
		<path d="M229.766,83.194l-3.849,10.021h-1.429l-4.102-10.021h1.511l1.169,3.035h4.19l1.101-3.035H229.766z M226.874,87.31h-3.397
			l1.046,2.775c0.319,0.843,0.556,1.536,0.711,2.078c0.127-0.643,0.308-1.28,0.54-1.914L226.874,87.31z"/>
	</g>
	<g>
		<path d="M278.329,83.194v10.021h-3.76c-0.766,0-1.38-0.102-1.842-0.304c-0.462-0.203-0.825-0.516-1.087-0.938
			c-0.262-0.421-0.393-0.862-0.393-1.322c0-0.429,0.116-0.832,0.349-1.21s0.583-0.684,1.053-0.916
			c-0.606-0.178-1.072-0.48-1.398-0.909s-0.489-0.935-0.489-1.518c0-0.47,0.099-0.906,0.297-1.309
			c0.198-0.404,0.443-0.715,0.735-0.934s0.657-0.384,1.097-0.496c0.44-0.111,0.979-0.167,1.617-0.167H278.329z M277.002,84.377
			h-2.495c-0.428,0-0.729,0.016-0.902,0.048c-0.305,0.055-0.561,0.146-0.766,0.273s-0.374,0.313-0.506,0.558
			c-0.132,0.243-0.198,0.524-0.198,0.844c0,0.374,0.096,0.698,0.287,0.975c0.191,0.275,0.457,0.469,0.796,0.58
			c0.339,0.112,0.828,0.168,1.466,0.168h2.317V84.377z M277.002,89.005h-2.167c-0.588,0-1.009,0.039-1.265,0.116
			c-0.337,0.101-0.591,0.267-0.762,0.499s-0.256,0.524-0.256,0.875c0,0.333,0.08,0.626,0.239,0.878
			c0.16,0.254,0.387,0.427,0.684,0.52c0.296,0.094,0.804,0.141,1.524,0.141h2.003V89.005z"/>
	</g>
	<g>
		<path d="M321.51,86.879l-1.326-0.335c0.278-1.089,0.778-1.92,1.5-2.492c0.722-0.571,1.605-0.857,2.649-0.857
			c1.08,0,1.958,0.22,2.635,0.66c0.677,0.439,1.192,1.076,1.545,1.91s0.53,1.729,0.53,2.687c0,1.044-0.199,1.954-0.598,2.731
			c-0.399,0.776-0.966,1.367-1.702,1.77c-0.736,0.404-1.546,0.605-2.43,0.605c-1.002,0-1.846-0.255-2.529-0.766
			s-1.16-1.229-1.429-2.153l1.306-0.308c0.232,0.729,0.57,1.26,1.012,1.593s0.998,0.499,1.668,0.499c0.77,0,1.414-0.185,1.931-0.554
			s0.881-0.864,1.09-1.487c0.209-0.621,0.314-1.263,0.314-1.924c0-0.853-0.124-1.596-0.373-2.232
			c-0.249-0.635-0.635-1.11-1.159-1.425s-1.091-0.472-1.702-0.472c-0.743,0-1.372,0.214-1.887,0.643S321.692,86.036,321.51,86.879z"
			/>
	</g>
	<g>
		<path d="M378.66,83.194v10.021h-3.452c-0.779,0-1.374-0.048-1.784-0.144c-0.574-0.132-1.064-0.371-1.47-0.718
			c-0.529-0.446-0.924-1.018-1.186-1.712c-0.262-0.695-0.393-1.489-0.393-2.383c0-0.761,0.089-1.436,0.267-2.023
			s0.406-1.074,0.684-1.459c0.278-0.386,0.582-0.688,0.913-0.91c0.331-0.221,0.729-0.388,1.196-0.502s1.004-0.171,1.61-0.171H378.66
			z M377.334,84.377h-2.14c-0.661,0-1.179,0.062-1.555,0.185s-0.676,0.296-0.899,0.52c-0.314,0.314-0.56,0.737-0.735,1.269
			c-0.175,0.53-0.263,1.174-0.263,1.931c0,1.048,0.172,1.854,0.516,2.417c0.344,0.563,0.762,0.939,1.254,1.131
			c0.355,0.137,0.927,0.205,1.716,0.205h2.105V84.377z"/>
	</g>
	<g>
		<path d="M428.246,83.194v10.021H421v-1.183h5.92v-3.069h-5.545v-1.176h5.545v-3.411h-6.152v-1.183H428.246z"/>
	</g>
	<g>
		<path d="M477.813,83.194v10.021h-6.762v-1.183h5.436V88.93h-4.703v-1.183h4.703v-4.553H477.813z"/>
	</g>
	<g>
		<path d="M524.361,87.296v1.176l-4.246,0.007V84.76c0.652-0.52,1.324-0.91,2.018-1.173c0.691-0.262,1.402-0.393,2.133-0.393
			c0.984,0,1.879,0.211,2.682,0.633c0.805,0.421,1.412,1.03,1.822,1.828s0.615,1.688,0.615,2.673c0,0.976-0.203,1.886-0.611,2.731
			c-0.408,0.845-0.994,1.473-1.76,1.883s-1.648,0.615-2.646,0.615c-0.725,0-1.379-0.117-1.965-0.352
			c-0.586-0.235-1.045-0.563-1.377-0.981c-0.334-0.419-0.586-0.966-0.76-1.641l1.197-0.328c0.15,0.511,0.336,0.911,0.561,1.203
			c0.223,0.292,0.541,0.525,0.957,0.7c0.414,0.176,0.875,0.264,1.381,0.264c0.605,0,1.129-0.092,1.572-0.277
			c0.441-0.184,0.799-0.427,1.068-0.728c0.271-0.301,0.482-0.631,0.633-0.991c0.256-0.62,0.383-1.292,0.383-2.017
			c0-0.894-0.154-1.641-0.461-2.242c-0.309-0.602-0.756-1.048-1.344-1.34s-1.213-0.438-1.873-0.438c-0.574,0-1.135,0.11-1.682,0.331
			c-0.547,0.222-0.961,0.457-1.244,0.708v1.866H524.361z"/>
	</g>
	<g>
		<path d="M578.619,83.194v10.021h-1.326v-4.115h-5.209v4.115h-1.326V83.194h1.326v4.724h5.209v-4.724H578.619z"/>
	</g>
</g>
<g>
	<g>
		<path d="M611.932,470.572h1.23v7.842c0.297-0.283,0.686-0.566,1.166-0.848c0.48-0.283,0.912-0.494,1.295-0.637v1.189
			c-0.688,0.324-1.289,0.717-1.805,1.176c-0.515,0.461-0.879,0.908-1.094,1.34h-0.793V470.572z"/>
	</g>
	<g>
		<path d="M608.997,422.145v-1.184h6.625c0.009,0.297-0.039,0.582-0.145,0.855c-0.168,0.451-0.438,0.895-0.81,1.332
			s-0.908,0.943-1.61,1.518c-1.089,0.895-1.824,1.602-2.207,2.123s-0.574,1.016-0.574,1.48c0,0.486,0.174,0.898,0.522,1.234
			c0.349,0.334,0.804,0.502,1.364,0.502c0.592,0,1.066-0.178,1.422-0.533s0.535-0.848,0.539-1.477l1.266,0.129
			c-0.087,0.943-0.413,1.662-0.979,2.158c-0.564,0.494-1.323,0.74-2.275,0.74c-0.962,0-1.723-0.266-2.283-0.799
			s-0.842-1.195-0.842-1.982c0-0.402,0.082-0.795,0.246-1.184c0.164-0.387,0.438-0.795,0.817-1.223
			c0.38-0.43,1.013-1.018,1.897-1.764c0.738-0.621,1.212-1.041,1.422-1.262c0.209-0.221,0.383-0.443,0.52-0.666H608.997z"/>
	</g>
	<g>
		<path d="M615.623,373.607l-1.23,0.164c-0.142-0.697-0.383-1.199-0.722-1.508c-0.339-0.307-0.753-0.461-1.241-0.461
			c-0.578,0-1.066,0.199-1.466,0.602c-0.399,0.4-0.599,0.896-0.599,1.49c0,0.564,0.186,1.031,0.555,1.398
			c0.369,0.365,0.838,0.549,1.408,0.549c0.232,0,0.521-0.045,0.867-0.137l-0.137,1.08c-0.082-0.008-0.147-0.014-0.197-0.014
			c-0.524,0-0.996,0.137-1.416,0.41c-0.419,0.273-0.629,0.695-0.629,1.266c0,0.451,0.153,0.824,0.459,1.121
			c0.305,0.295,0.699,0.443,1.182,0.443c0.479,0,0.878-0.15,1.197-0.451c0.318-0.301,0.523-0.752,0.615-1.354l1.23,0.219
			c-0.15,0.826-0.492,1.465-1.025,1.918s-1.197,0.68-1.99,0.68c-0.547,0-1.05-0.117-1.51-0.352
			c-0.461-0.234-0.813-0.555-1.057-0.961c-0.244-0.404-0.365-0.836-0.365-1.291c0-0.434,0.115-0.828,0.348-1.184
			s0.577-0.637,1.033-0.848c-0.593-0.137-1.053-0.42-1.381-0.85c-0.328-0.432-0.492-0.971-0.492-1.617
			c0-0.875,0.318-1.617,0.957-2.225c0.638-0.609,1.444-0.914,2.42-0.914c0.879,0,1.609,0.262,2.19,0.787
			C615.209,372.094,615.541,372.773,615.623,373.607z"/>
	</g>
	<g>
		<path d="M611.275,320.961v2.4h4.348v1.127l-4.574,6.494h-1.004v-6.494h-1.354v-1.127h1.354v-2.4H611.275z M611.275,324.488v4.52
			l3.137-4.52H611.275z"/>
	</g>
	<g>
		<path d="M615.623,273.586l-1.291,0.109c-0.096-0.629-0.318-1.102-0.667-1.419c-0.349-0.316-0.769-0.475-1.261-0.475
			c-0.593,0-1.094,0.224-1.504,0.67s-0.615,1.039-0.615,1.777c0,0.702,0.197,1.256,0.591,1.661s0.91,0.608,1.548,0.608
			c0.396,0,0.755-0.09,1.074-0.27c0.318-0.181,0.569-0.414,0.752-0.701l1.154,0.15l-0.971,5.147h-4.982v-1.176h3.998l0.541-2.693
			c-0.602,0.419-1.233,0.629-1.895,0.629c-0.875,0-1.613-0.303-2.215-0.909s-0.902-1.386-0.902-2.338
			c0-0.907,0.265-1.69,0.793-2.352c0.643-0.812,1.521-1.217,2.633-1.217c0.911,0,1.654,0.255,2.231,0.766
			S615.541,272.744,615.623,273.586z"/>
	</g>
	<g>
		<path d="M609.184,228.529l1.225-0.096c0.109,0.483,0.264,0.834,0.465,1.053c0.332,0.351,0.742,0.526,1.23,0.526
			c0.392,0,0.735-0.109,1.031-0.328c0.388-0.282,0.693-0.695,0.916-1.237c0.224-0.542,0.34-1.314,0.35-2.317
			c-0.297,0.451-0.659,0.786-1.088,1.005c-0.428,0.219-0.877,0.328-1.346,0.328c-0.82,0-1.52-0.302-2.096-0.906
			c-0.576-0.604-0.865-1.384-0.865-2.341c0-0.629,0.137-1.214,0.407-1.753c0.271-0.541,0.644-0.954,1.118-1.241
			c0.474-0.287,1.012-0.431,1.613-0.431c1.025,0,1.861,0.377,2.508,1.131c0.647,0.755,0.971,1.998,0.971,3.729
			c0,1.937-0.357,3.345-1.072,4.225c-0.625,0.766-1.466,1.148-2.523,1.148c-0.788,0-1.434-0.221-1.938-0.663
			S609.284,229.308,609.184,228.529z M614.209,224.208c0-0.424-0.09-0.829-0.271-1.217s-0.432-0.683-0.755-0.885
			c-0.324-0.203-0.664-0.305-1.02-0.305c-0.52,0-0.966,0.21-1.34,0.629c-0.373,0.419-0.561,0.989-0.561,1.709
			c0,0.692,0.186,1.238,0.555,1.637c0.369,0.399,0.834,0.599,1.395,0.599c0.556,0,1.027-0.199,1.414-0.599
			C614.015,225.378,614.209,224.856,614.209,224.208z"/>
	</g>
	<g>
		<path d="M615.623,179.67v1.183h-6.486v-0.957c0.638-0.679,1.27-1.581,1.896-2.707s1.111-2.283,1.453-3.473
			c0.246-0.839,0.402-1.757,0.471-2.755h1.266c-0.014,0.788-0.169,1.741-0.465,2.857c-0.297,1.116-0.722,2.193-1.275,3.229
			c-0.554,1.037-1.143,1.911-1.768,2.622H615.623z"/>
	</g>
	<g>
		<path d="M613.717,126.396c0.51,0.187,0.889,0.453,1.135,0.8s0.369,0.761,0.369,1.244c0,0.729-0.263,1.342-0.787,1.839
			c-0.523,0.497-1.221,0.745-2.092,0.745c-0.875,0-1.578-0.254-2.111-0.763c-0.533-0.508-0.801-1.126-0.801-1.855
			c0-0.465,0.123-0.869,0.366-1.213c0.243-0.345,0.614-0.61,1.11-0.797c-0.615-0.2-1.083-0.524-1.404-0.971s-0.482-0.979-0.482-1.6
			c0-0.856,0.304-1.577,0.91-2.16c0.605-0.583,1.403-0.875,2.393-0.875c0.988,0,1.786,0.293,2.393,0.879
			c0.605,0.585,0.908,1.315,0.908,2.19c0,0.651-0.164,1.197-0.495,1.638C614.797,125.937,614.327,126.237,613.717,126.396z
			 M614.359,123.853c0-0.351-0.084-0.69-0.25-1.019s-0.414-0.582-0.742-0.763c-0.328-0.18-0.681-0.27-1.059-0.27
			c-0.588,0-1.074,0.189-1.457,0.567s-0.574,0.859-0.574,1.442c0,0.593,0.197,1.082,0.592,1.47s0.888,0.581,1.48,0.581
			c0.578,0,1.059-0.191,1.438-0.574S614.359,124.427,614.359,123.853z M613.963,128.481c0-0.474-0.153-0.861-0.459-1.162
			c-0.305-0.301-0.701-0.451-1.189-0.451c-0.474,0-0.861,0.149-1.165,0.448c-0.304,0.298-0.454,0.664-0.454,1.097
			c0,0.451,0.156,0.831,0.468,1.138c0.312,0.309,0.7,0.462,1.165,0.462c0.47,0,0.859-0.15,1.17-0.451
			C613.808,129.26,613.963,128.9,613.963,128.481z"/>
	</g>
</g>
<g>
	<g>
		<path d="M187.073,478.039h-1.23v-7.842c-0.296,0.283-0.685,0.566-1.166,0.848c-0.481,0.283-0.913,0.494-1.295,0.637v-1.189
			c0.688-0.324,1.29-0.717,1.805-1.176c0.515-0.461,0.879-0.908,1.094-1.34h0.793V478.039z"/>
	</g>
	<g>
		<path d="M190.007,427.244v1.184h-6.624c-0.009-0.297,0.039-0.582,0.144-0.855c0.168-0.451,0.438-0.895,0.81-1.332
			s0.908-0.943,1.61-1.518c1.089-0.895,1.825-1.602,2.208-2.123s0.574-1.016,0.574-1.48c0-0.486-0.174-0.898-0.523-1.234
			c-0.349-0.334-0.803-0.502-1.364-0.502c-0.592,0-1.066,0.178-1.422,0.533s-0.536,0.848-0.54,1.477l-1.265-0.129
			c0.086-0.943,0.413-1.662,0.978-2.158c0.565-0.494,1.324-0.74,2.276-0.74c0.961,0,1.723,0.266,2.283,0.799
			s0.841,1.195,0.841,1.982c0,0.402-0.082,0.795-0.246,1.184c-0.164,0.387-0.437,0.795-0.817,1.223
			c-0.38,0.43-1.013,1.018-1.897,1.764c-0.738,0.621-1.212,1.041-1.422,1.262s-0.383,0.443-0.52,0.666H190.007z"/>
	</g>
	<g>
		<path d="M183.382,375.781l1.23-0.164c0.141,0.697,0.382,1.199,0.721,1.508c0.339,0.307,0.753,0.461,1.241,0.461
			c0.579,0,1.067-0.199,1.466-0.602c0.399-0.4,0.598-0.896,0.598-1.49c0-0.564-0.185-1.031-0.554-1.398
			c-0.369-0.365-0.838-0.549-1.408-0.549c-0.232,0-0.522,0.045-0.868,0.137l0.137-1.08c0.082,0.008,0.148,0.014,0.198,0.014
			c0.524,0,0.996-0.137,1.415-0.41s0.629-0.695,0.629-1.266c0-0.451-0.153-0.824-0.458-1.121c-0.305-0.295-0.7-0.443-1.183-0.443
			c-0.479,0-0.877,0.15-1.196,0.451s-0.524,0.752-0.615,1.354l-1.23-0.219c0.15-0.826,0.492-1.465,1.025-1.918
			s1.196-0.68,1.989-0.68c0.547,0,1.05,0.117,1.511,0.352s0.813,0.555,1.056,0.961c0.244,0.404,0.366,0.836,0.366,1.291
			c0,0.434-0.116,0.828-0.349,1.184s-0.577,0.637-1.032,0.848c0.592,0.137,1.053,0.42,1.381,0.85
			c0.328,0.432,0.492,0.971,0.492,1.617c0,0.875-0.319,1.617-0.957,2.225c-0.638,0.609-1.445,0.914-2.42,0.914
			c-0.879,0-1.61-0.262-2.191-0.787C183.795,377.295,183.464,376.615,183.382,375.781z"/>
	</g>
	<g>
		<path d="M187.729,328.428v-2.4h-4.348V324.9l4.573-6.494h1.005v6.494h1.354v1.127h-1.354v2.4H187.729z M187.729,324.9v-4.52
			l-3.138,4.52H187.729z"/>
	</g>
	<g>
		<path d="M183.382,275.802l1.292-0.109c0.096,0.629,0.318,1.102,0.667,1.419c0.349,0.316,0.769,0.475,1.261,0.475
			c0.592,0,1.094-0.224,1.504-0.67s0.615-1.039,0.615-1.777c0-0.702-0.197-1.256-0.591-1.661s-0.91-0.608-1.548-0.608
			c-0.396,0-0.754,0.09-1.073,0.27c-0.319,0.181-0.57,0.414-0.752,0.701l-1.155-0.15l0.971-5.147h4.983v1.176h-3.999l-0.54,2.693
			c0.602-0.419,1.233-0.629,1.894-0.629c0.875,0,1.613,0.303,2.215,0.909s0.902,1.386,0.902,2.338c0,0.907-0.264,1.69-0.793,2.352
			c-0.643,0.812-1.52,1.217-2.632,1.217c-0.912,0-1.655-0.255-2.232-0.766S183.464,276.645,183.382,275.802z"/>
	</g>
	<g>
		<path d="M189.821,220.86l-1.224,0.096c-0.109-0.483-0.264-0.834-0.465-1.053c-0.333-0.351-0.743-0.526-1.23-0.526
			c-0.392,0-0.736,0.109-1.032,0.328c-0.387,0.282-0.693,0.695-0.916,1.237s-0.339,1.314-0.349,2.317
			c0.296-0.451,0.659-0.786,1.087-1.005s0.877-0.328,1.347-0.328c0.82,0,1.519,0.302,2.095,0.906
			c0.577,0.604,0.865,1.384,0.865,2.341c0,0.629-0.136,1.214-0.407,1.753c-0.271,0.541-0.644,0.954-1.118,1.241
			s-1.012,0.431-1.613,0.431c-1.025,0-1.862-0.377-2.509-1.131c-0.647-0.755-0.971-1.998-0.971-3.729
			c0-1.937,0.358-3.345,1.073-4.225c0.625-0.766,1.465-1.148,2.522-1.148c0.789,0,1.435,0.221,1.938,0.663
			S189.721,220.081,189.821,220.86z M184.797,225.18c0,0.424,0.09,0.829,0.27,1.217s0.432,0.683,0.755,0.885
			c0.324,0.203,0.663,0.305,1.019,0.305c0.52,0,0.966-0.21,1.34-0.629s0.561-0.989,0.561-1.709c0-0.692-0.185-1.238-0.554-1.637
			c-0.369-0.399-0.834-0.599-1.395-0.599c-0.556,0-1.028,0.199-1.415,0.599C184.991,224.01,184.797,224.533,184.797,225.18z"/>
	</g>
	<g>
		<path d="M183.382,169.718v-1.183h6.487v0.957c-0.638,0.679-1.271,1.581-1.897,2.707s-1.111,2.283-1.453,3.473
			c-0.246,0.839-0.403,1.757-0.472,2.755h-1.265c0.014-0.788,0.168-1.741,0.465-2.857s0.721-2.193,1.275-3.229
			c0.554-1.037,1.143-1.911,1.767-2.622H183.382z"/>
	</g>
	<g>
		<path d="M185.289,122.993c-0.51-0.187-0.889-0.453-1.135-0.8s-0.369-0.761-0.369-1.244c0-0.729,0.262-1.342,0.786-1.839
			s1.221-0.745,2.092-0.745c0.875,0,1.579,0.254,2.112,0.763c0.533,0.508,0.8,1.126,0.8,1.855c0,0.465-0.122,0.869-0.366,1.213
			c-0.244,0.345-0.614,0.61-1.111,0.797c0.615,0.2,1.083,0.524,1.405,0.971s0.482,0.979,0.482,1.6c0,0.856-0.303,1.577-0.909,2.16
			s-1.404,0.875-2.393,0.875s-1.787-0.293-2.393-0.879c-0.606-0.585-0.909-1.315-0.909-2.19c0-0.651,0.165-1.197,0.496-1.638
			C184.208,123.452,184.678,123.152,185.289,122.993z M184.646,125.536c0,0.351,0.083,0.69,0.25,1.019s0.414,0.582,0.742,0.763
			c0.328,0.18,0.681,0.27,1.06,0.27c0.588,0,1.073-0.189,1.456-0.567s0.574-0.859,0.574-1.442c0-0.593-0.197-1.082-0.591-1.47
			s-0.888-0.581-1.48-0.581c-0.579,0-1.059,0.191-1.439,0.574S184.646,124.961,184.646,125.536z M185.043,120.908
			c0,0.474,0.153,0.861,0.458,1.162s0.702,0.451,1.189,0.451c0.474,0,0.862-0.149,1.166-0.448c0.303-0.298,0.455-0.664,0.455-1.097
			c0-0.451-0.156-0.831-0.468-1.138c-0.312-0.309-0.701-0.462-1.166-0.462c-0.469,0-0.859,0.15-1.169,0.451
			S185.043,120.489,185.043,120.908z"/>
	</g>
</g>
<g>
	<path d="M224.5,154.5c-11.045,0-20,8.955-20,20c0,11.046,8.955,20,20,20c11.046,0,20-8.954,20-20
		C244.5,163.455,235.546,154.5,224.5,154.5z M224.5,161.117c7.363,0,13.383,6.02,13.383,13.383c0,7.363-6.02,13.383-13.383,13.383
		s-13.383-6.02-13.383-13.383C211.117,167.137,217.137,161.117,224.5,161.117z M224.5,182.5c-4.418,0-8-3.582-8-8s3.582-8,8-8
		s8,3.582,8,8S228.918,182.5,224.5,182.5z"/>
	<path d="M274.5,104.5c-11.045,0-20,8.955-20,20c0,11.046,8.955,20,20,20c11.046,0,20-8.954,20-20
		C294.5,113.455,285.546,104.5,274.5,104.5z M274.5,111.117c7.363,0,13.383,6.02,13.383,13.383c0,7.363-6.02,13.383-13.383,13.383
		s-13.383-6.02-13.383-13.383C261.117,117.137,267.137,111.117,274.5,111.117z M274.5,132.5c-4.418,0-8-3.582-8-8s3.582-8,8-8
		s8,3.582,8,8S278.918,132.5,274.5,132.5z"/>
	<path d="M274.5,204.5c-11.045,0-20,8.955-20,20c0,11.046,8.955,20,20,20c11.046,0,20-8.954,20-20
		C294.5,213.455,285.546,204.5,274.5,204.5z M274.5,211.117c7.363,0,13.383,6.02,13.383,13.383c0,7.363-6.02,13.383-13.383,13.383
		s-13.383-6.02-13.383-13.383C261.117,217.137,267.137,211.117,274.5,211.117z M274.5,232.5c-4.418,0-8-3.582-8-8s3.582-8,8-8
		s8,3.582,8,8S278.918,232.5,274.5,232.5z"/>
	<path d="M324.5,154.5c-11.045,0-20,8.955-20,20c0,11.046,8.955,20,20,20c11.046,0,20-8.954,20-20
		C344.5,163.455,335.546,154.5,324.5,154.5z M324.5,161.117c7.363,0,13.383,6.02,13.383,13.383c0,7.363-6.02,13.383-13.383,13.383
		s-13.383-6.02-13.383-13.383C311.117,167.137,317.137,161.117,324.5,161.117z M324.5,182.5c-4.418,0-8-3.582-8-8s3.582-8,8-8
		s8,3.582,8,8S328.918,182.5,324.5,182.5z"/>
	<path d="M374.5,104.5c-11.045,0-20,8.955-20,20c0,11.046,8.955,20,20,20c11.046,0,20-8.954,20-20
		C394.5,113.455,385.546,104.5,374.5,104.5z M374.5,111.117c7.363,0,13.383,6.02,13.383,13.383c0,7.363-6.02,13.383-13.383,13.383
		s-13.383-6.02-13.383-13.383C361.117,117.137,367.137,111.117,374.5,111.117z M374.5,132.5c-4.418,0-8-3.582-8-8s3.582-8,8-8
		s8,3.582,8,8S378.918,132.5,374.5,132.5z"/>
	<path d="M374.5,204.5c-11.045,0-20,8.955-20,20c0,11.046,8.955,20,20,20c11.046,0,20-8.954,20-20
		C394.5,213.455,385.546,204.5,374.5,204.5z M374.5,211.117c7.363,0,13.383,6.02,13.383,13.383c0,7.363-6.02,13.383-13.383,13.383
		s-13.383-6.02-13.383-13.383C361.117,217.137,367.137,211.117,374.5,211.117z M374.5,232.5c-4.418,0-8-3.582-8-8s3.582-8,8-8
		s8,3.582,8,8S378.918,232.5,374.5,232.5z"/>
	<path d="M424.5,154.5c-11.045,0-20,8.955-20,20c0,11.046,8.955,20,20,20c11.046,0,20-8.954,20-20
		C444.5,163.455,435.546,154.5,424.5,154.5z M424.5,161.117c7.363,0,13.383,6.02,13.383,13.383c0,7.363-6.02,13.383-13.383,13.383
		s-13.383-6.02-13.383-13.383C411.117,167.137,417.137,161.117,424.5,161.117z M424.5,182.5c-4.418,0-8-3.582-8-8s3.582-8,8-8
		s8,3.582,8,8S428.918,182.5,424.5,182.5z"/>
	<path d="M474.5,104.5c-11.045,0-20,8.955-20,20c0,11.046,8.955,20,20,20c11.046,0,20-8.954,20-20
		C494.5,113.455,485.546,104.5,474.5,104.5z M474.5,111.117c7.363,0,13.383,6.02,13.383,13.383c0,7.363-6.02,13.383-13.383,13.383
		s-13.383-6.02-13.383-13.383C461.117,117.137,467.137,111.117,474.5,111.117z M474.5,132.5c-4.418,0-8-3.582-8-8s3.582-8,8-8
		s8,3.582,8,8S478.918,132.5,474.5,132.5z"/>
	<path d="M474.5,204.5c-11.045,0-20,8.955-20,20c0,11.046,8.955,20,20,20c11.046,0,20-8.954,20-20
		C494.5,213.455,485.546,204.5,474.5,204.5z M474.5,211.117c7.363,0,13.383,6.02,13.383,13.383c0,7.363-6.02,13.383-13.383,13.383
		s-13.383-6.02-13.383-13.383C461.117,217.137,467.137,211.117,474.5,211.117z M474.5,232.5c-4.418,0-8-3.582-8-8s3.582-8,8-8
		s8,3.582,8,8S478.918,232.5,474.5,232.5z"/>
	<path d="M524.5,154.5c-11.045,0-20,8.955-20,20c0,11.046,8.955,20,20,20c11.046,0,20-8.954,20-20
		C544.5,163.455,535.546,154.5,524.5,154.5z M524.5,161.117c7.363,0,13.383,6.02,13.383,13.383c0,7.363-6.02,13.383-13.383,13.383
		s-13.383-6.02-13.383-13.383C511.117,167.137,517.137,161.117,524.5,161.117z M524.5,182.5c-4.418,0-8-3.582-8-8s3.582-8,8-8
		s8,3.582,8,8S528.918,182.5,524.5,182.5z"/>
	<path d="M574.5,104.5c-11.045,0-20,8.955-20,20c0,11.046,8.955,20,20,20c11.046,0,20-8.954,20-20
		C594.5,113.455,585.546,104.5,574.5,104.5z M574.5,111.117c7.363,0,13.383,6.02,13.383,13.383c0,7.363-6.02,13.383-13.383,13.383
		s-13.383-6.02-13.383-13.383C561.117,117.137,567.137,111.117,574.5,111.117z M574.5,132.5c-4.418,0-8-3.582-8-8s3.582-8,8-8
		s8,3.582,8,8S578.918,132.5,574.5,132.5z"/>
	<path d="M574.5,204.5c-11.045,0-20,8.955-20,20c0,11.046,8.955,20,20,20c11.046,0,20-8.954,20-20
		C594.5,213.455,585.546,204.5,574.5,204.5z M574.5,211.117c7.363,0,13.383,6.02,13.383,13.383c0,7.363-6.02,13.383-13.383,13.383
		s-13.383-6.02-13.383-13.383C561.117,217.137,567.137,211.117,574.5,211.117z M574.5,232.5c-4.418,0-8-3.582-8-8s3.582-8,8-8
		s8,3.582,8,8S578.918,232.5,574.5,232.5z"/>
</g>
<g>
	<path fill="#FFFFCC" d="M574.5,404.5c-11.045,0-20,8.955-20,20c0,11.046,8.955,20,20,20c11.046,0,20-8.954,20-20
		C594.5,413.455,585.546,404.5,574.5,404.5z M574.5,411.117c7.363,0,13.383,6.02,13.383,13.383s-6.02,13.383-13.383,13.383
		s-13.383-6.02-13.383-13.383S567.137,411.117,574.5,411.117z M574.5,432.5c-4.418,0-8-3.582-8-8s3.582-8,8-8s8,3.582,8,8
		S578.918,432.5,574.5,432.5z"/>
	<path fill="#FFFFCC" d="M224.5,354.5c-11.045,0-20,8.955-20,20c0,11.046,8.955,20,20,20c11.046,0,20-8.954,20-20
		C244.5,363.455,235.546,354.5,224.5,354.5z M224.5,361.117c7.363,0,13.383,6.02,13.383,13.383s-6.02,13.383-13.383,13.383
		s-13.383-6.02-13.383-13.383S217.137,361.117,224.5,361.117z M224.5,382.5c-4.418,0-8-3.582-8-8s3.582-8,8-8s8,3.582,8,8
		S228.918,382.5,224.5,382.5z"/>
	<path fill="#FFFFCC" d="M224.5,454.5c-11.045,0-20,8.955-20,20c0,11.046,8.955,20,20,20c11.046,0,20-8.954,20-20
		C244.5,463.455,235.546,454.5,224.5,454.5z M224.5,461.117c7.363,0,13.383,6.02,13.383,13.383s-6.02,13.383-13.383,13.383
		s-13.383-6.02-13.383-13.383S217.137,461.117,224.5,461.117z M224.5,482.5c-4.418,0-8-3.582-8-8s3.582-8,8-8s8,3.582,8,8
		S228.918,482.5,224.5,482.5z"/>
	<path fill="#FFFFCC" d="M274.5,404.5c-11.045,0-20,8.955-20,20c0,11.046,8.955,20,20,20c11.046,0,20-8.954,20-20
		C294.5,413.455,285.546,404.5,274.5,404.5z M274.5,411.117c7.363,0,13.383,6.02,13.383,13.383s-6.02,13.383-13.383,13.383
		s-13.383-6.02-13.383-13.383S267.137,411.117,274.5,411.117z M274.5,432.5c-4.418,0-8-3.582-8-8s3.582-8,8-8s8,3.582,8,8
		S278.918,432.5,274.5,432.5z"/>
	<path fill="#FFFFCC" d="M324.5,354.5c-11.045,0-20,8.955-20,20c0,11.046,8.955,20,20,20c11.046,0,20-8.954,20-20
		C344.5,363.455,335.546,354.5,324.5,354.5z M324.5,361.117c7.363,0,13.383,6.02,13.383,13.383s-6.02,13.383-13.383,13.383
		s-13.383-6.02-13.383-13.383S317.137,361.117,324.5,361.117z M324.5,382.5c-4.418,0-8-3.582-8-8s3.582-8,8-8s8,3.582,8,8
		S328.918,382.5,324.5,382.5z"/>
	<path fill="#FFFFCC" d="M324.5,454.5c-11.045,0-20,8.955-20,20c0,11.046,8.955,20,20,20c11.046,0,20-8.954,20-20
		C344.5,463.455,335.546,454.5,324.5,454.5z M324.5,461.117c7.363,0,13.383,6.02,13.383,13.383s-6.02,13.383-13.383,13.383
		s-13.383-6.02-13.383-13.383S317.137,461.117,324.5,461.117z M324.5,482.5c-4.418,0-8-3.582-8-8s3.582-8,8-8s8,3.582,8,8
		S328.918,482.5,324.5,482.5z"/>
	<path fill="#FFFFCC" d="M374.5,404.5c-11.045,0-20,8.955-20,20c0,11.046,8.955,20,20,20c11.046,0,20-8.954,20-20
		C394.5,413.455,385.546,404.5,374.5,404.5z M374.5,411.117c7.363,0,13.383,6.02,13.383,13.383s-6.02,13.383-13.383,13.383
		s-13.383-6.02-13.383-13.383S367.137,411.117,374.5,411.117z M374.5,432.5c-4.418,0-8-3.582-8-8s3.582-8,8-8s8,3.582,8,8
		S378.918,432.5,374.5,432.5z"/>
	<path fill="#FFFFCC" d="M424.5,354.5c-11.045,0-20,8.955-20,20c0,11.046,8.955,20,20,20c11.046,0,20-8.954,20-20
		C444.5,363.455,435.546,354.5,424.5,354.5z M424.5,361.117c7.363,0,13.383,6.02,13.383,13.383s-6.02,13.383-13.383,13.383
		s-13.383-6.02-13.383-13.383S417.137,361.117,424.5,361.117z M424.5,382.5c-4.418,0-8-3.582-8-8s3.582-8,8-8s8,3.582,8,8
		S428.918,382.5,424.5,382.5z"/>
	<path fill="#FFFFCC" d="M424.5,454.5c-11.045,0-20,8.955-20,20c0,11.046,8.955,20,20,20c11.046,0,20-8.954,20-20
		C444.5,463.455,435.546,454.5,424.5,454.5z M424.5,461.117c7.363,0,13.383,6.02,13.383,13.383s-6.02,13.383-13.383,13.383
		s-13.383-6.02-13.383-13.383S417.137,461.117,424.5,461.117z M424.5,482.5c-4.418,0-8-3.582-8-8s3.582-8,8-8s8,3.582,8,8
		S428.918,482.5,424.5,482.5z"/>
	<path fill="#FFFFCC" d="M474.5,404.5c-11.045,0-20,8.955-20,20c0,11.046,8.955,20,20,20c11.046,0,20-8.954,20-20
		C494.5,413.455,485.546,404.5,474.5,404.5z M474.5,411.117c7.363,0,13.383,6.02,13.383,13.383s-6.02,13.383-13.383,13.383
		s-13.383-6.02-13.383-13.383S467.137,411.117,474.5,411.117z M474.5,432.5c-4.418,0-8-3.582-8-8s3.582-8,8-8s8,3.582,8,8
		S478.918,432.5,474.5,432.5z"/>
	<path fill="#FFFFCC" d="M524.5,354.5c-11.045,0-20,8.955-20,20c0,11.046,8.955,20,20,20c11.046,0,20-8.954,20-20
		C544.5,363.455,535.546,354.5,524.5,354.5z M524.5,361.117c7.363,0,13.383,6.02,13.383,13.383s-6.02,13.383-13.383,13.383
		s-13.383-6.02-13.383-13.383S517.137,361.117,524.5,361.117z M524.5,382.5c-4.418,0-8-3.582-8-8s3.582-8,8-8s8,3.582,8,8
		S528.918,382.5,524.5,382.5z"/>
	<path fill="#FFFFCC" d="M524.5,454.5c-11.045,0-20,8.955-20,20c0,11.046,8.955,20,20,20c11.046,0,20-8.954,20-20
		C544.5,463.455,535.546,454.5,524.5,454.5z M524.5,461.117c7.363,0,13.383,6.02,13.383,13.383s-6.02,13.383-13.383,13.383
		s-13.383-6.02-13.383-13.383S517.137,461.117,524.5,461.117z M524.5,482.5c-4.418,0-8-3.582-8-8s3.582-8,8-8s8,3.582,8,8
		S528.918,482.5,524.5,482.5z"/>
</g>
<path d="M224.5,294.5c11.045,0,20-8.955,20-20c0-11.046-8.955-20-20-20c-11.046,0-20,8.954-20,20
	C204.5,285.545,213.454,294.5,224.5,294.5z M224.5,288.5c-7.703,0-14-6.298-14-14c0-7.703,6.297-14,14-14s14,6.297,14,14
	C238.5,282.202,232.203,288.5,224.5,288.5z M216.5,267l8,1l8-1l2,11l-6-4l-4,8l-4-8l-6,4L216.5,267z"/>
<path fill="#FFFFCC" d="M274.5,304.5c-11.045,0-20,8.955-20,20c0,11.046,8.955,20,20,20c11.046,0,20-8.954,20-20
	C294.5,313.455,285.546,304.5,274.5,304.5z M274.5,310.5c7.703,0,14,6.298,14,14c0,7.703-6.297,14-14,14s-14-6.297-14-14
	C260.5,316.798,266.797,310.5,274.5,310.5z M282.5,332l-8-1l-8,1l-2-11l6,4l4-8l4,8l6-4L282.5,332z"/>
<path d="M324.5,294.5c11.045,0,20-8.955,20-20c0-11.046-8.955-20-20-20c-11.046,0-20,8.954-20,20
	C304.5,285.545,313.454,294.5,324.5,294.5z M324.5,288.5c-7.703,0-14-6.298-14-14c0-7.703,6.297-14,14-14s14,6.297,14,14
	C338.5,282.202,332.203,288.5,324.5,288.5z M316.5,267l8,1l8-1l2,11l-6-4l-4,8l-4-8l-6,4L316.5,267z"/>
<path fill="#FFFFCC" d="M374.5,304.5c-11.045,0-20,8.955-20,20c0,11.046,8.955,20,20,20c11.046,0,20-8.954,20-20
	C394.5,313.455,385.546,304.5,374.5,304.5z M374.5,310.5c7.703,0,14,6.298,14,14c0,7.703-6.297,14-14,14s-14-6.297-14-14
	C360.5,316.798,366.797,310.5,374.5,310.5z M382.5,332l-8-1l-8,1l-2-11l6,4l4-8l4,8l6-4L382.5,332z"/>
</svg>
